<svg width="278" height="105" viewBox="0 0 278 105" fill="none" xmlns="http://www.w3.org/2000/svg">
<path d="M3.20801 91V48.8182H14.6597V81.7727H31.7137V91H3.20801ZM61.3058 48.8182H72.7575V75.8409C72.7575 79.054 71.9886 81.8345 70.4507 84.1825C68.9266 86.5168 66.7983 88.3224 64.0658 89.5994C61.3333 90.8627 58.1614 91.4943 54.5502 91.4943C50.9114 91.4943 47.7258 90.8627 44.9933 89.5994C42.2609 88.3224 40.1325 86.5168 38.6084 84.1825C37.098 81.8345 36.3428 79.054 36.3428 75.8409V48.8182H47.7945V74.8523C47.7945 76.1567 48.0828 77.3239 48.6595 78.3537C49.2362 79.3698 50.0326 80.1662 51.0487 80.7429C52.0786 81.3196 53.2457 81.608 54.5502 81.608C55.8683 81.608 57.0355 81.3196 58.0516 80.7429C59.0677 80.1662 59.8641 79.3698 60.4408 78.3537C61.0175 77.3239 61.3058 76.1567 61.3058 74.8523V48.8182ZM78.2002 48.8182H92.453L102.257 72.7102H102.751L112.555 48.8182H126.808V91H115.604V66.6136H115.274L105.882 90.6705H99.1263L89.7343 66.4489H89.4047V91H78.2002V48.8182ZM132.235 91V48.8182H162.636V58.0455H143.687V65.2955H161.071V74.5227H143.687V81.7727H162.554V91H132.235ZM204.813 48.8182V91H195.256L180.014 68.8381H179.767V91H168.315V48.8182H178.037L193.031 70.8977H193.361V48.8182H204.813Z" fill="url(#paint0_linear_46_2)"/>
<rect x="213" y="37" width="65" height="65" rx="20" fill="url(#paint1_linear_46_2)"/>
<path d="M233.596 85H225.073L234.675 55.9091H245.471L255.073 85H246.55L240.187 63.9205H239.96L233.596 85ZM232.005 73.5227H248.028V79.4318H232.005V73.5227ZM257.989 85V63.1818H265.83V85H257.989ZM261.909 60.9091C260.848 60.9091 259.939 60.5587 259.182 59.858C258.424 59.1572 258.045 58.3144 258.045 57.3295C258.045 56.3447 258.424 55.5019 259.182 54.8011C259.939 54.1004 260.848 53.75 261.909 53.75C262.979 53.75 263.888 54.1004 264.636 54.8011C265.394 55.5019 265.773 56.3447 265.773 57.3295C265.773 58.3144 265.394 59.1572 264.636 59.858C263.888 60.5587 262.979 60.9091 261.909 60.9091Z" fill="white"/>
<defs>
<linearGradient id="paint0_linear_46_2" x1="0" y1="70" x2="208" y2="70" gradientUnits="userSpaceOnUse">
<stop stop-color="#00FFFF"/>
<stop offset="0.5" stop-color="#FF00FF"/>
<stop offset="1" stop-color="#FFFF00"/>
</linearGradient>
<linearGradient id="paint1_linear_46_2" x1="213" y1="69.5" x2="278" y2="69.5" gradientUnits="userSpaceOnUse">
<stop stop-color="#00FFFF"/>
<stop offset="0.5" stop-color="#FF00FF"/>
<stop offset="1" stop-color="#FFFF00"/>
</linearGradient>
</defs>
</svg>
